<?xml version="1.0" encoding="UTF-8"?>
<!DOCTYPE svg PUBLIC "-//W3C//DTD SVG 1.1//EN" "http://www.w3.org/Graphics/SVG/1.1/DTD/svg11.dtd">
<svg xmlns="http://www.w3.org/2000/svg" version="1.1" width="90px" height="90px" style="shape-rendering:geometricPrecision; text-rendering:geometricPrecision; image-rendering:optimizeQuality; fill-rule:evenodd; clip-rule:evenodd" xmlns:xlink="http://www.w3.org/1999/xlink">
<g><path style="opacity:0.004" fill="#000000" d="M 5.5,3.5 C 6.83333,4.16667 6.83333,4.16667 5.5,3.5 Z"/></g>
<g><path style="opacity:0.004" fill="#000000" d="M 11.5,4.5 C 12.8333,5.16667 12.8333,5.16667 11.5,4.5 Z"/></g>
<g><path style="opacity:0.004" fill="#000000" d="M 2.5,5.5 C 3.83333,6.16667 3.83333,6.16667 2.5,5.5 Z"/></g>
<g><path style="opacity:0.004" fill="#000000" d="M 71.5,5.5 C 72.8333,6.16667 72.8333,6.16667 71.5,5.5 Z"/></g>
<g><path style="opacity:0.004" fill="#000000" d="M 20.5,6.5 C 21.8333,7.16667 21.8333,7.16667 20.5,6.5 Z"/></g>
<g><path style="opacity:0.004" fill="#000000" d="M 74.5,7.5 C 75.8333,8.16667 75.8333,8.16667 74.5,7.5 Z"/></g>
<g><path style="opacity:0.004" fill="#000000" d="M 2.5,8.5 C 3.83333,9.16667 3.83333,9.16667 2.5,8.5 Z"/></g>
<g><path style="opacity:0.004" fill="#000000" d="M 59.5,8.5 C 60.8333,9.16667 60.8333,9.16667 59.5,8.5 Z"/></g>
<g><path style="opacity:0.004" fill="#000000" d="M 23.5,10.5 C 24.8333,11.1667 24.8333,11.1667 23.5,10.5 Z"/></g>
<g><path style="opacity:0.004" fill="#000000" d="M 71.5,14.5 C 72.8333,15.1667 72.8333,15.1667 71.5,14.5 Z"/></g>
<g><path style="opacity:0.004" fill="#000000" d="M 80.5,14.5 C 81.8333,15.1667 81.8333,15.1667 80.5,14.5 Z"/></g>
<g><path style="opacity:0.004" fill="#000000" d="M -0.5,15.5 C 0.833333,16.1667 0.833333,16.1667 -0.5,15.5 Z"/></g>
<g><path style="opacity:0.004" fill="#000000" d="M 17.5,16.5 C 18.8333,17.1667 18.8333,17.1667 17.5,16.5 Z"/></g>
<g><path style="opacity:0.004" fill="#000000" d="M 80.5,17.5 C 81.8333,18.1667 81.8333,18.1667 80.5,17.5 Z"/></g>
<g><path style="opacity:0.466" fill="#fafafa" d="M 60.5,32.5 C 59.8826,32.6107 59.3826,32.944 59,33.5C 58.8138,36.0356 58.3138,38.369 57.5,40.5C 57.5,38.5 57.5,36.5 57.5,34.5C 56.325,34.719 55.325,34.3857 54.5,33.5C 55.5063,32.6043 55.5063,31.9377 54.5,31.5C 53.6143,32.325 53.281,33.325 53.5,34.5C 48.7498,33.9792 44.0832,33.9792 39.5,34.5C 38.1667,34.1667 36.8333,33.8333 35.5,33.5C 36.5063,32.6043 36.5063,31.9377 35.5,31.5C 34.7825,34.058 33.4491,34.7247 31.5,33.5C 30.5,33.1667 29.8333,32.5 29.5,31.5C 31.8802,29.7633 33.5469,27.43 34.5,24.5C 35.8524,25.5175 36.8524,26.8508 37.5,28.5C 37.8333,27.8333 38.1667,27.1667 38.5,26.5C 37.8333,24.8333 37.1667,23.1667 36.5,21.5C 36.5743,19.2606 37.741,18.2606 40,18.5C 41.9713,18.2814 43.1379,19.1147 43.5,21C 41.8179,22.8951 41.3179,25.0617 42,27.5C 44.2774,23.4531 45.944,23.7865 47,28.5C 47.782,25.7431 47.282,23.2431 45.5,21C 46.4691,17.9252 48.4691,16.9252 51.5,18C 52.9817,20.5918 52.6483,22.9251 50.5,25C 51.1905,26.0674 51.6905,27.2341 52,28.5C 53.6716,23.3886 54.8383,23.3886 55.5,28.5C 58.3667,28.3692 60.0334,29.7026 60.5,32.5 Z"/></g>
<g><path style="opacity:0.004" fill="#000000" d="M 26.5,23.5 C 27.8333,24.1667 27.8333,24.1667 26.5,23.5 Z"/></g>
<g><path style="opacity:0.004" fill="#000000" d="M 62.5,25.5 C 63.8333,26.1667 63.8333,26.1667 62.5,25.5 Z"/></g>
<g><path style="opacity:0.004" fill="#000000" d="M 77.5,25.5 C 78.8333,26.1667 78.8333,26.1667 77.5,25.5 Z"/></g>
<g><path style="opacity:0.004" fill="#000000" d="M 86.5,27.5 C 87.8333,28.1667 87.8333,28.1667 86.5,27.5 Z"/></g>
<g><path style="opacity:0.004" fill="#000000" d="M 71.5,30.5 C 72.8333,31.1667 72.8333,31.1667 71.5,30.5 Z"/></g>
<g><path style="opacity:0.004" fill="#000000" d="M -0.5,31.5 C 0.833333,32.1667 0.833333,32.1667 -0.5,31.5 Z"/></g>
<g><path style="opacity:0.004" fill="#fe0000" d="M 77.5,32.5 C 78.8333,33.1667 78.8333,33.1667 77.5,32.5 Z"/></g>
<g><path style="opacity:0.004" fill="#000000" d="M 11.5,33.5 C 12.8333,34.1667 12.8333,34.1667 11.5,33.5 Z"/></g>
<g><path style="opacity:0.511" fill="#f7f6f7" d="M 29.5,31.5 C 29.8333,32.5 30.5,33.1667 31.5,33.5C 31.5,40.5 31.5,47.5 31.5,54.5C 33.9424,54.3537 34.6091,55.187 33.5,57C 34.448,57.4828 35.448,57.6495 36.5,57.5C 37.552,57.3505 38.552,57.5172 39.5,58C 36.1238,58.3071 34.7904,60.1405 35.5,63.5C 35.44,64.0431 35.1067,64.3764 34.5,64.5C 32.997,63.4099 32.6637,62.2433 33.5,61C 30.5965,58.6825 27.5965,56.5158 24.5,54.5C 25.5175,53.1476 26.8508,52.1476 28.5,51.5C 25.1371,52.1792 21.6371,52.1792 18,51.5C 17.2571,49.5594 17.4238,47.7261 18.5,46C 21.2187,45.4719 23.7187,45.9719 26,47.5C 26.8333,47.1667 27.6667,46.8333 28.5,46.5C 23.3858,45.0268 23.3858,43.3601 28.5,41.5C 27.8333,41.1667 27.1667,40.8333 26.5,40.5C 24.5229,41.4599 22.5229,42.4599 20.5,43.5C 16.3671,40.5593 16.7004,38.226 21.5,36.5C 23.5771,37.9371 25.9105,38.6038 28.5,38.5C 28.5,37.5 28.5,36.5 28.5,35.5C 27.0222,35.762 25.6888,35.4287 24.5,34.5C 26.3964,33.7255 28.063,32.7255 29.5,31.5 Z"/></g>
<g><path style="opacity:0.004" fill="#000000" d="M 80.5,35.5 C 81.8333,36.1667 81.8333,36.1667 80.5,35.5 Z"/></g>
<g><path style="opacity:0.004" fill="#000000" d="M 77.5,39.5 C 78.8333,40.1667 78.8333,40.1667 77.5,39.5 Z"/></g>
<g><path style="opacity:0.716" fill="#f4f2f4" d="M 60.5,32.5 C 65.1931,33.4012 65.5264,34.9012 61.5,37C 64.1667,37 66.8333,37 69.5,37C 71.5268,38.3957 71.8602,40.0624 70.5,42C 67.4856,42.1276 64.4856,42.1276 61.5,42C 63.0441,42.2896 64.3774,42.9563 65.5,44C 64.3975,46.3909 65.0642,46.8909 67.5,45.5C 71.7405,46.7149 72.4072,48.8816 69.5,52C 68.2068,52.49 66.8734,52.6567 65.5,52.5C 65.5,53.5 65.5,54.5 65.5,55.5C 61.9911,56.904 58.6578,58.5707 55.5,60.5C 55.7692,62.4286 55.2692,64.0953 54,65.5C 53.2432,63.6854 52.4098,62.0188 51.5,60.5C 52.1098,59.609 52.4431,58.609 52.5,57.5C 54.9418,57.8808 55.6085,57.2141 54.5,55.5C 55.325,54.6143 56.325,54.281 57.5,54.5C 57.401,49.5241 57.401,44.8574 57.5,40.5C 58.3138,38.369 58.8138,36.0356 59,33.5C 59.3826,32.944 59.8826,32.6107 60.5,32.5 Z"/></g>
<g><path style="opacity:0.004" fill="#000000" d="M 8.5,46.5 C 9.83333,47.1667 9.83333,47.1667 8.5,46.5 Z"/></g>
<g><path style="opacity:0.004" fill="#000000" d="M 86.5,47.5 C 87.8333,48.1667 87.8333,48.1667 86.5,47.5 Z"/></g>
<g><path style="opacity:0.668" fill="#f6f7f7" d="M 45.5,36.5 C 49.738,37.7361 52.738,40.4028 54.5,44.5C 53.5893,47.0819 51.9226,49.0819 49.5,50.5C 48.5,50.1667 47.8333,49.5 47.5,48.5C 50.9953,46.2454 51.162,43.912 48,41.5C 46.3415,44.9767 45.1749,48.6434 44.5,52.5C 40.3302,51.009 36.9968,48.3423 34.5,44.5C 36.1491,42.3501 37.9824,40.3501 40,38.5C 40.6924,39.0253 41.1924,39.6919 41.5,40.5C 37.7099,43.0046 37.7099,45.3379 41.5,47.5C 42.8403,43.8104 44.1736,40.1438 45.5,36.5 Z"/></g>
<g><path style="opacity:0.004" fill="#000000" d="M 86.5,50.5 C 87.8333,51.1667 87.8333,51.1667 86.5,50.5 Z"/></g>
<g><path style="opacity:0.004" fill="#000000" d="M 71.5,52.5 C 72.8333,53.1667 72.8333,53.1667 71.5,52.5 Z"/></g>
<g><path style="opacity:0.004" fill="#000000" d="M 14.5,56.5 C 15.8333,57.1667 15.8333,57.1667 14.5,56.5 Z"/></g>
<g><path style="opacity:0.504" fill="#fbfbfb" d="M 52.5,57.5 C 52.4431,58.609 52.1098,59.609 51.5,60.5C 51.8769,63.5248 52.0435,66.5248 52,69.5C 49.427,70.9825 47.2603,70.4825 45.5,68C 47.282,65.7569 47.782,63.2569 47,60.5C 45.3333,65.8333 43.6667,65.8333 42,60.5C 41.161,63.1396 41.661,65.4729 43.5,67.5C 42.2778,70.0894 40.2778,70.9228 37.5,70C 36.9415,69.2753 36.6082,68.4419 36.5,67.5C 37.8449,65.6772 38.3449,63.6772 38,61.5C 37.6667,61.1667 37.3333,60.8333 37,60.5C 36.7679,61.7375 36.2679,62.7375 35.5,63.5C 34.7904,60.1405 36.1238,58.3071 39.5,58C 38.552,57.5172 37.552,57.3505 36.5,57.5C 36.1961,56.8501 35.8627,56.1835 35.5,55.5C 37.1459,54.3401 38.9792,53.6734 41,53.5C 44.4626,53.6126 47.9626,53.9459 51.5,54.5C 53.8034,54.8763 54.1368,55.8763 52.5,57.5 Z"/></g>
<g><path style="opacity:0.004" fill="#000000" d="M 17.5,58.5 C 18.8333,59.1667 18.8333,59.1667 17.5,58.5 Z"/></g>
<g><path style="opacity:0.004" fill="#000000" d="M 71.5,61.5 C 72.8333,62.1667 72.8333,62.1667 71.5,61.5 Z"/></g>
<g><path style="opacity:0.004" fill="#000000" d="M 17.5,63.5 C 18.8333,64.1667 18.8333,64.1667 17.5,63.5 Z"/></g>
<g><path style="opacity:0.004" fill="#000000" d="M 29.5,63.5 C 30.8333,64.1667 30.8333,64.1667 29.5,63.5 Z"/></g>
<g><path style="opacity:0.004" fill="#000000" d="M 56.5,65.5 C 57.8333,66.1667 57.8333,66.1667 56.5,65.5 Z"/></g>
<g><path style="opacity:0.004" fill="#000000" d="M 71.5,67.5 C 72.8333,68.1667 72.8333,68.1667 71.5,67.5 Z"/></g>
<g><path style="opacity:0.004" fill="#000000" d="M 74.5,67.5 C 75.8333,68.1667 75.8333,68.1667 74.5,67.5 Z"/></g>
<g><path style="opacity:0.004" fill="#000000" d="M 14.5,68.5 C 15.8333,69.1667 15.8333,69.1667 14.5,68.5 Z"/></g>
<g><path style="opacity:0.004" fill="#000000" d="M 17.5,70.5 C 18.8333,71.1667 18.8333,71.1667 17.5,70.5 Z"/></g>
<g><path style="opacity:0.004" fill="#000000" d="M 14.5,71.5 C 15.8333,72.1667 15.8333,72.1667 14.5,71.5 Z"/></g>
<g><path style="opacity:0.004" fill="#000000" d="M 32.5,71.5 C 33.8333,72.1667 33.8333,72.1667 32.5,71.5 Z"/></g>
<g><path style="opacity:0.004" fill="#000000" d="M 2.5,72.5 C 3.83333,73.1667 3.83333,73.1667 2.5,72.5 Z"/></g>
<g><path style="opacity:0.004" fill="#000000" d="M 8.5,74.5 C 9.83333,75.1667 9.83333,75.1667 8.5,74.5 Z"/></g>
<g><path style="opacity:0.004" fill="#000000" d="M 74.5,74.5 C 75.8333,75.1667 75.8333,75.1667 74.5,74.5 Z"/></g>
<g><path style="opacity:0.004" fill="#000000" d="M 35.5,75.5 C 36.8333,76.1667 36.8333,76.1667 35.5,75.5 Z"/></g>
<g><path style="opacity:0.004" fill="#000000" d="M 80.5,76.5 C 81.8333,77.1667 81.8333,77.1667 80.5,76.5 Z"/></g>
<g><path style="opacity:0.004" fill="#000000" d="M 71.5,77.5 C 72.8333,78.1667 72.8333,78.1667 71.5,77.5 Z"/></g>
<g><path style="opacity:0.004" fill="#000000" d="M 41.5,78.5 C 42.8333,79.1667 42.8333,79.1667 41.5,78.5 Z"/></g>
<g><path style="opacity:0.004" fill="#fe0000" d="M 8.5,79.5 C 9.83333,80.1667 9.83333,80.1667 8.5,79.5 Z"/></g>
<g><path style="opacity:0.004" fill="#000000" d="M 50.5,79.5 C 51.8333,80.1667 51.8333,80.1667 50.5,79.5 Z"/></g>
<g><path style="opacity:0.004" fill="#000000" d="M -0.5,80.5 C 0.833333,81.1667 0.833333,81.1667 -0.5,80.5 Z"/></g>
<g><path style="opacity:0.004" fill="#000000" d="M 71.5,80.5 C 72.8333,81.1667 72.8333,81.1667 71.5,80.5 Z"/></g>
<g><path style="opacity:0.004" fill="#000000" d="M 44.5,84.5 C 45.8333,85.1667 45.8333,85.1667 44.5,84.5 Z"/></g>
<g><path style="opacity:0.004" fill="#000000" d="M 20.5,87.5 C 21.8333,88.1667 21.8333,88.1667 20.5,87.5 Z"/></g>
</svg>
