<?xml version="1.0" encoding="UTF-8"?>
<!DOCTYPE svg PUBLIC "-//W3C//DTD SVG 1.1//EN" "http://www.w3.org/Graphics/SVG/1.1/DTD/svg11.dtd">
<svg xmlns="http://www.w3.org/2000/svg" version="1.1" width="90px" height="90px" style="shape-rendering:geometricPrecision; text-rendering:geometricPrecision; image-rendering:optimizeQuality; fill-rule:evenodd; clip-rule:evenodd" xmlns:xlink="http://www.w3.org/1999/xlink">
<g><path style="opacity:0.004" fill="#fefffe" d="M 41.5,0.5 C 42.8333,1.16667 42.8333,1.16667 41.5,0.5 Z"/></g>
<g><path style="opacity:0.004" fill="#fefffe" d="M 68.5,0.5 C 69.8333,1.16667 69.8333,1.16667 68.5,0.5 Z"/></g>
<g><path style="opacity:0.004" fill="#fefffe" d="M 80.5,2.5 C 81.8333,3.16667 81.8333,3.16667 80.5,2.5 Z"/></g>
<g><path style="opacity:0.004" fill="#fefffe" d="M 59.5,4.5 C 60.8333,5.16667 60.8333,5.16667 59.5,4.5 Z"/></g>
<g><path style="opacity:0.004" fill="#fefffe" d="M 20.5,5.5 C 21.8333,6.16667 21.8333,6.16667 20.5,5.5 Z"/></g>
<g><path style="opacity:0.004" fill="#fefffe" d="M 86.5,5.5 C 87.8333,6.16667 87.8333,6.16667 86.5,5.5 Z"/></g>
<g><path style="opacity:0.004" fill="#00fffe" d="M 5.5,6.5 C 6.83333,7.16667 6.83333,7.16667 5.5,6.5 Z"/></g>
<g><path style="opacity:0.004" fill="#fefffe" d="M 53.5,7.5 C 54.8333,8.16667 54.8333,8.16667 53.5,7.5 Z"/></g>
<g><path style="opacity:0.004" fill="#fefffe" d="M 2.5,8.5 C 3.83333,9.16667 3.83333,9.16667 2.5,8.5 Z"/></g>
<g><path style="opacity:0.004" fill="#fefffe" d="M 23.5,9.5 C 24.8333,10.1667 24.8333,10.1667 23.5,9.5 Z"/></g>
<g><path style="opacity:0.004" fill="#fefffe" d="M 44.5,10.5 C 45.8333,11.1667 45.8333,11.1667 44.5,10.5 Z"/></g>
<g><path style="opacity:0.004" fill="#fefffe" d="M 47.5,10.5 C 48.8333,11.1667 48.8333,11.1667 47.5,10.5 Z"/></g>
<g><path style="opacity:0.004" fill="#fefffe" d="M 47.5,12.5 C 48.8333,13.1667 48.8333,13.1667 47.5,12.5 Z"/></g>
<g><path style="opacity:0.004" fill="#fefffe" d="M 83.5,12.5 C 84.8333,13.1667 84.8333,13.1667 83.5,12.5 Z"/></g>
<g><path style="opacity:0.004" fill="#fefffe" d="M 56.5,13.5 C 57.8333,14.1667 57.8333,14.1667 56.5,13.5 Z"/></g>
<g><path style="opacity:0.004" fill="#fefffe" d="M 11.5,16.5 C 12.8333,17.1667 12.8333,17.1667 11.5,16.5 Z"/></g>
<g><path style="opacity:1" fill="#3d9be3" d="M 46.5,15.5 C 63.5,17.1667 72.8333,26.5 74.5,43.5C 72.8333,43.5 71.1667,43.5 69.5,43.5C 67.5224,30.189 59.8557,22.5224 46.5,20.5C 46.5,18.8333 46.5,17.1667 46.5,15.5 Z"/></g>
<g><path style="opacity:0.004" fill="#fefffe" d="M 74.5,24.5 C 75.8333,25.1667 75.8333,25.1667 74.5,24.5 Z"/></g>
<g><path style="opacity:0.989" fill="#535353" d="M 30.5,42.5 C 29.776,44.2184 29.1094,46.0517 28.5,48C 28.8333,48.3333 29.1667,48.6667 29.5,49C 28.8905,51.0581 27.8905,51.8914 26.5,51.5C 26.7093,52.086 27.0426,52.586 27.5,53C 25.8236,52.5658 24.1569,51.7324 22.5,50.5C 21.8933,50.6236 21.56,50.9569 21.5,51.5C 18.9039,50.7347 16.2372,50.4013 13.5,50.5C 13.335,47.1501 13.5017,43.8168 14,40.5C 18.9299,40.7849 22.0966,38.6183 23.5,34C 22.1678,31.4085 21.0012,28.9085 20,26.5C 22.0165,24.316 24.1831,22.316 26.5,20.5C 33.9611,26.4405 38.2944,24.6072 39.5,15C 41.1341,14.5065 42.8008,14.3398 44.5,14.5C 44.6554,20.1893 44.6554,25.856 44.5,31.5C 37.4994,32.1645 32.8328,35.8311 30.5,42.5 Z"/></g>
<g><path style="opacity:1" fill="#3999e3" d="M 46.5,23.5 C 58.1667,25.1667 64.8333,31.8333 66.5,43.5C 64.712,43.7852 63.0453,43.4519 61.5,42.5C 59.5,35.1667 54.8333,30.5 47.5,28.5C 46.5481,26.9547 46.2148,25.288 46.5,23.5 Z"/></g>
<g><path style="opacity:0.004" fill="#fefffe" d="M 8.5,37.5 C 9.83333,38.1667 9.83333,38.1667 8.5,37.5 Z"/></g>
<g><path style="opacity:0.004" fill="#fefffe" d="M 41.5,39.5 C 42.8333,40.1667 42.8333,40.1667 41.5,39.5 Z"/></g>
<g><path style="opacity:1" fill="#32a0f5" d="M 49.5,32.5 C 52.2878,33.2265 54.2878,34.8932 55.5,37.5C 55.5,39.1667 55.5,40.8333 55.5,42.5C 52.8333,42.5 50.1667,42.5 47.5,42.5C 47.0604,38.8215 47.727,35.4882 49.5,32.5 Z"/></g>
<g><path style="opacity:0.004" fill="#fefffe" d="M 32.5,41.5 C 33.8333,42.1667 33.8333,42.1667 32.5,41.5 Z"/></g>
<g><path style="opacity:0.216" fill="#479bd2" d="M 49.5,32.5 C 47.727,35.4882 47.0604,38.8215 47.5,42.5C 50.1667,42.5 52.8333,42.5 55.5,42.5C 55.5,40.8333 55.5,39.1667 55.5,37.5C 57.0739,39.1016 57.7406,41.1016 57.5,43.5C 53.8333,43.5 50.1667,43.5 46.5,43.5C 46.1758,39.4454 46.5091,35.4454 47.5,31.5C 48.1835,31.8627 48.8501,32.1961 49.5,32.5 Z"/></g>
<g><path style="opacity:0.004" fill="#fefffe" d="M 86.5,44.5 C 87.8333,45.1667 87.8333,45.1667 86.5,44.5 Z"/></g>
<g><path style="opacity:0.004" fill="#fefffe" d="M 77.5,47.5 C 78.8333,48.1667 78.8333,48.1667 77.5,47.5 Z"/></g>
<g><path style="opacity:0.998" fill="#525253" d="M 53.5,66.5 C 53.0582,65.7688 52.8915,64.7688 53,63.5C 52.586,63.9574 52.086,64.2907 51.5,64.5C 50.6184,63.2402 49.6184,62.0736 48.5,61C 49.7155,58.9045 50.5488,59.0712 51,61.5C 52.5342,60.1195 52.3675,58.7861 50.5,57.5C 55.3899,54.7539 58.0565,50.4206 58.5,44.5C 63.8333,44.5 69.1667,44.5 74.5,44.5C 74.5,46.5 74.5,48.5 74.5,50.5C 69.5798,49.7843 66.5798,51.7843 65.5,56.5C 65.9404,59.2138 67.2738,61.3805 69.5,63C 67.5,65 65.5,67 63.5,69C 60.4683,67.5745 57.135,66.7412 53.5,66.5 Z"/></g>
<g><path style="opacity:0.998" fill="#505050" d="M 30.5,42.5 C 31.1362,55.8007 37.8028,60.8007 50.5,57.5C 52.3675,58.7861 52.5342,60.1195 51,61.5C 50.5488,59.0712 49.7155,58.9045 48.5,61C 49.6184,62.0736 50.6184,63.2402 51.5,64.5C 52.086,64.2907 52.586,63.9574 53,63.5C 52.8915,64.7688 53.0582,65.7688 53.5,66.5C 50.3141,68.5475 48.9807,71.5475 49.5,75.5C 46.1667,75.5 42.8333,75.5 39.5,75.5C 38.6381,66.2371 34.3048,64.2371 26.5,69.5C 24.1831,67.684 22.0165,65.684 20,63.5C 20.7682,61.1564 21.9349,58.8231 23.5,56.5C 22.5435,54.9246 21.8769,53.258 21.5,51.5C 21.56,50.9569 21.8933,50.6236 22.5,50.5C 24.1569,51.7324 25.8236,52.5658 27.5,53C 27.0426,52.586 26.7093,52.086 26.5,51.5C 27.8905,51.8914 28.8905,51.0581 29.5,49C 29.1667,48.6667 28.8333,48.3333 28.5,48C 29.1094,46.0517 29.776,44.2184 30.5,42.5 Z"/></g>
<g><path style="opacity:0.004" fill="#fefffe" d="M 44.5,53.5 C 45.8333,54.1667 45.8333,54.1667 44.5,53.5 Z"/></g>
<g><path style="opacity:0.004" fill="#fefffe" d="M 8.5,57.5 C 9.83333,58.1667 9.83333,58.1667 8.5,57.5 Z"/></g>
<g><path style="opacity:0.004" fill="#fefffe" d="M 11.5,59.5 C 12.8333,60.1667 12.8333,60.1667 11.5,59.5 Z"/></g>
<g><path style="opacity:0.004" fill="#fefffe" d="M 11.5,61.5 C 12.8333,62.1667 12.8333,62.1667 11.5,61.5 Z"/></g>
<g><path style="opacity:0.004" fill="#fdfffe" d="M 71.5,61.5 C 72.8333,62.1667 72.8333,62.1667 71.5,61.5 Z"/></g>
<g><path style="opacity:0.004" fill="#fefffe" d="M 5.5,63.5 C 6.83333,64.1667 6.83333,64.1667 5.5,63.5 Z"/></g>
<g><path style="opacity:0.004" fill="#fefffe" d="M 68.5,66.5 C 69.8333,67.1667 69.8333,67.1667 68.5,66.5 Z"/></g>
<g><path style="opacity:0.004" fill="#fefffe" d="M -0.5,67.5 C 0.833333,68.1667 0.833333,68.1667 -0.5,67.5 Z"/></g>
<g><path style="opacity:0.004" fill="#fefffe" d="M 17.5,67.5 C 18.8333,68.1667 18.8333,68.1667 17.5,67.5 Z"/></g>
<g><path style="opacity:0.004" fill="#fefffe" d="M 74.5,67.5 C 75.8333,68.1667 75.8333,68.1667 74.5,67.5 Z"/></g>
<g><path style="opacity:0.004" fill="#fefffe" d="M 26.5,70.5 C 27.8333,71.1667 27.8333,71.1667 26.5,70.5 Z"/></g>
<g><path style="opacity:0.004" fill="#fefffe" d="M 74.5,74.5 C 75.8333,75.1667 75.8333,75.1667 74.5,74.5 Z"/></g>
<g><path style="opacity:0.004" fill="#fefffe" d="M 80.5,75.5 C 81.8333,76.1667 81.8333,76.1667 80.5,75.5 Z"/></g>
<g><path style="opacity:0.004" fill="#fefffe" d="M 35.5,76.5 C 36.8333,77.1667 36.8333,77.1667 35.5,76.5 Z"/></g>
<g><path style="opacity:0.004" fill="#fefffe" d="M 86.5,76.5 C 87.8333,77.1667 87.8333,77.1667 86.5,76.5 Z"/></g>
<g><path style="opacity:0.004" fill="#fefffe" d="M 8.5,78.5 C 9.83333,79.1667 9.83333,79.1667 8.5,78.5 Z"/></g>
<g><path style="opacity:0.004" fill="#fefffe" d="M 2.5,79.5 C 3.83333,80.1667 3.83333,80.1667 2.5,79.5 Z"/></g>
<g><path style="opacity:0.004" fill="#fefffe" d="M 29.5,83.5 C 30.8333,84.1667 30.8333,84.1667 29.5,83.5 Z"/></g>
<g><path style="opacity:0.004" fill="#fefffe" d="M 20.5,86.5 C 21.8333,87.1667 21.8333,87.1667 20.5,86.5 Z"/></g>
</svg>
